<svg width="25" height="25" fill="none" xmlns="http://www.w3.org/2000/svg"><path d="M24.793 6.741a.718.718 0 00-.623-.34H7.593l-1.27-4.46A3.508 3.508 0 005.86.907C5.664.622 5.457.42 5.237.302a2.676 2.676 0 00-.574-.239A1.947 1.947 0 004.175 0H.83a.72.72 0 00-.537.227.799.799 0 00-.22.58c0 .134.033.264.098.39a.679.679 0 00.28.29c.123.067.249.1.38.1h3.344c.065 0 .126.01.183.026.057.017.134.088.232.214s.179.315.244.567l4.321 16.381a.932.932 0 00.159.29.786.786 0 00.256.214.69.69 0 00.318.076h10.547a.75.75 0 00.451-.151.744.744 0 00.281-.378l3.735-11.341a.83.83 0 00-.11-.744zm-4.895 11h-9.4l-2.49-9.727h15.039l-3.15 9.728zm-1.539 3.227a1.85 1.85 0 00-1.379.592c-.383.395-.574.87-.574 1.424 0 .554.192 1.029.574 1.424.383.395.842.592 1.38.592.537 0 .996-.197 1.379-.592.382-.395.573-.87.573-1.424 0-.555-.19-1.03-.573-1.424a1.852 1.852 0 00-1.38-.592zm-7.03 0c-.359 0-.689.092-.99.277a2 2 0 00-.964 1.739c0 .554.191 1.029.574 1.424a1.85 1.85 0 001.38.592c.536 0 .996-.197 1.378-.592.383-.395.574-.87.574-1.424 0-.135-.012-.269-.036-.403a1.841 1.841 0 00-.293-.719 2.179 2.179 0 00-.537-.554 1.697 1.697 0 00-.696-.302 2.053 2.053 0 00-.39-.038z" fill="#fff"/></svg>