<svg width="17" height="19" viewBox="0 0 17 19" fill="none" xmlns="http://www.w3.org/2000/svg">
<path d="M5.37496 2.20832C5.09869 2.20832 4.83374 2.31807 4.63839 2.51342C4.44304 2.70877 4.33329 2.97372 4.33329 3.24999C4.33329 3.52626 4.44304 3.79121 4.63839 3.98656C4.83374 4.18191 5.09869 4.29166 5.37496 4.29166C5.65123 4.29166 5.91618 4.18191 6.11153 3.98656C6.30688 3.79121 6.41663 3.52626 6.41663 3.24999C6.41663 2.97372 6.30688 2.70877 6.11153 2.51342C5.91618 2.31807 5.65123 2.20832 5.37496 2.20832ZM2.42704 2.20832C2.64225 1.59839 3.04135 1.07023 3.56933 0.696645C4.09731 0.323057 4.72817 0.122437 5.37496 0.122437C6.02174 0.122437 6.6526 0.323057 7.18058 0.696645C7.70856 1.07023 8.10766 1.59839 8.32288 2.20832H15.7916C16.0679 2.20832 16.3328 2.31807 16.5282 2.51342C16.7235 2.70877 16.8333 2.97372 16.8333 3.24999C16.8333 3.52626 16.7235 3.79121 16.5282 3.98656C16.3328 4.18191 16.0679 4.29166 15.7916 4.29166H8.32288C8.10766 4.90159 7.70856 5.42975 7.18058 5.80333C6.6526 6.17692 6.02174 6.37754 5.37496 6.37754C4.72817 6.37754 4.09731 6.17692 3.56933 5.80333C3.04135 5.42975 2.64225 4.90159 2.42704 4.29166H1.20829C0.932025 4.29166 0.667074 4.18191 0.471723 3.98656C0.276373 3.79121 0.166626 3.52626 0.166626 3.24999C0.166626 2.97372 0.276373 2.70877 0.471723 2.51342C0.667074 2.31807 0.932025 2.20832 1.20829 2.20832H2.42704ZM11.625 8.45832C11.3487 8.45832 11.0837 8.56807 10.8884 8.76342C10.693 8.95877 10.5833 9.22372 10.5833 9.49999C10.5833 9.77626 10.693 10.0412 10.8884 10.2366C11.0837 10.4319 11.3487 10.5417 11.625 10.5417C11.9012 10.5417 12.1662 10.4319 12.3615 10.2366C12.5569 10.0412 12.6666 9.77626 12.6666 9.49999C12.6666 9.22372 12.5569 8.95877 12.3615 8.76342C12.1662 8.56807 11.9012 8.45832 11.625 8.45832ZM8.67704 8.45832C8.89225 7.84839 9.29135 7.32023 9.81933 6.94664C10.3473 6.57306 10.9782 6.37244 11.625 6.37244C12.2717 6.37244 12.9026 6.57306 13.4306 6.94664C13.9586 7.32023 14.3577 7.84839 14.5729 8.45832H15.7916C16.0679 8.45832 16.3328 8.56807 16.5282 8.76342C16.7235 8.95877 16.8333 9.22372 16.8333 9.49999C16.8333 9.77626 16.7235 10.0412 16.5282 10.2366C16.3328 10.4319 16.0679 10.5417 15.7916 10.5417H14.5729C14.3577 11.1516 13.9586 11.6797 13.4306 12.0533C12.9026 12.4269 12.2717 12.6275 11.625 12.6275C10.9782 12.6275 10.3473 12.4269 9.81933 12.0533C9.29135 11.6797 8.89225 11.1516 8.67704 10.5417H1.20829C0.932025 10.5417 0.667074 10.4319 0.471723 10.2366C0.276373 10.0412 0.166626 9.77626 0.166626 9.49999C0.166626 9.22372 0.276373 8.95877 0.471723 8.76342C0.667074 8.56807 0.932025 8.45832 1.20829 8.45832H8.67704ZM5.37496 14.7083C5.09869 14.7083 4.83374 14.8181 4.63839 15.0134C4.44304 15.2088 4.33329 15.4737 4.33329 15.75C4.33329 16.0263 4.44304 16.2912 4.63839 16.4866C4.83374 16.6819 5.09869 16.7917 5.37496 16.7917C5.65123 16.7917 5.91618 16.6819 6.11153 16.4866C6.30688 16.2912 6.41663 16.0263 6.41663 15.75C6.41663 15.4737 6.30688 15.2088 6.11153 15.0134C5.91618 14.8181 5.65123 14.7083 5.37496 14.7083ZM2.42704 14.7083C2.64225 14.0984 3.04135 13.5702 3.56933 13.1966C4.09731 12.8231 4.72817 12.6224 5.37496 12.6224C6.02174 12.6224 6.6526 12.8231 7.18058 13.1966C7.70856 13.5702 8.10766 14.0984 8.32288 14.7083H15.7916C16.0679 14.7083 16.3328 14.8181 16.5282 15.0134C16.7235 15.2088 16.8333 15.4737 16.8333 15.75C16.8333 16.0263 16.7235 16.2912 16.5282 16.4866C16.3328 16.6819 16.0679 16.7917 15.7916 16.7917H8.32288C8.10766 17.4016 7.70856 17.9297 7.18058 18.3033C6.6526 18.6769 6.02174 18.8775 5.37496 18.8775C4.72817 18.8775 4.09731 18.6769 3.56933 18.3033C3.04135 17.9297 2.64225 17.4016 2.42704 16.7917H1.20829C0.932025 16.7917 0.667074 16.6819 0.471723 16.4866C0.276373 16.2912 0.166626 16.0263 0.166626 15.75C0.166626 15.4737 0.276373 15.2088 0.471723 15.0134C0.667074 14.8181 0.932025 14.7083 1.20829 14.7083H2.42704Z" fill="white"/>
</svg>
