<svg width="17" height="19" fill="none" xmlns="http://www.w3.org/2000/svg"><path d="M5.375 2.208a1.042 1.042 0 100 2.084 1.042 1.042 0 000-2.084zm-2.948 0a3.126 3.126 0 015.896 0h7.469a1.042 1.042 0 010 2.084h-7.47a3.126 3.126 0 01-5.895 0H1.208a1.042 1.042 0 010-2.084h1.219zm9.198 6.25a1.042 1.042 0 100 2.084 1.042 1.042 0 000-2.084zm-2.948 0a3.126 3.126 0 015.896 0h1.219a1.042 1.042 0 010 2.084h-1.22a3.126 3.126 0 01-5.895 0H1.208a1.042 1.042 0 010-2.084h7.469zm-3.302 6.25a1.042 1.042 0 100 2.084 1.042 1.042 0 000-2.084zm-2.948 0a3.126 3.126 0 015.896 0h7.469a1.042 1.042 0 010 2.084h-7.47a3.126 3.126 0 01-5.895 0H1.208a1.042 1.042 0 010-2.084h1.219z" fill="#fff"/></svg>