<svg width="27" height="30" fill="none" xmlns="http://www.w3.org/2000/svg"><g clip-path="url(#clip0)"><path d="M23.141 0H3.071A3.078 3.078 0 000 3.086v20.25a3.078 3.078 0 003.07 3.085h16.986l-.794-2.77 1.917 1.782 1.812 1.677 3.22 2.846V3.086A3.078 3.078 0 0023.142 0zM17.36 19.561s-.54-.644-.989-1.213c1.962-.554 2.711-1.782 2.711-1.782a8.56 8.56 0 01-1.722.883 9.86 9.86 0 01-2.172.644c-1.438.27-2.756.195-3.88-.015a12.576 12.576 0 01-2.201-.643 8.781 8.781 0 01-1.094-.51c-.045-.03-.09-.045-.135-.075a.207.207 0 01-.06-.045c-.27-.15-.419-.254-.419-.254s.72 1.198 2.621 1.767c-.449.57-1.003 1.243-1.003 1.243-3.31-.105-4.568-2.276-4.568-2.276 0-4.823 2.156-8.733 2.156-8.733 2.157-1.617 4.21-1.572 4.21-1.572l.149.18c-2.696.778-3.94 1.962-3.94 1.962s.33-.18.884-.435c1.603-.704 2.876-.898 3.4-.943.09-.015.165-.03.255-.03a12.21 12.21 0 017.534 1.408s-1.183-1.124-3.73-1.903l.21-.24s2.052-.044 4.209 1.574c0 0 2.157 3.909 2.157 8.732 0 0-1.273 2.171-4.583 2.276zm-6.965-6.994c-.854 0-1.528.748-1.528 1.662 0 .914.689 1.663 1.528 1.663.854 0 1.527-.75 1.527-1.663.015-.913-.673-1.662-1.527-1.662zm5.467 0c-.854 0-1.528.748-1.528 1.662 0 .914.689 1.663 1.528 1.663.853 0 1.528-.75 1.528-1.663s-.675-1.662-1.528-1.662z" fill="#7289DA"/></g><defs><clipPath id="clip0"><path fill="#fff" d="M0 0h26.212v30H0z"/></clipPath></defs></svg>