<svg width="26" height="26" fill="none" xmlns="http://www.w3.org/2000/svg"><g clip-path="url(#clip0)"><path d="M6.872 22.268l.425.21c1.771 1.05 3.755 1.54 5.739 1.54 6.234 0 11.335-5.041 11.335-11.204 0-2.94-1.204-5.812-3.33-7.912a11.32 11.32 0 00-8.005-3.292C6.8 1.61 1.7 6.652 1.77 12.884c0 2.101.638 4.132 1.7 5.882l.284.42-1.134 4.132 4.251-1.05z" fill="#00E676"/><path d="M22.245 3.781C19.837 1.331 16.508 0 13.107 0 5.88 0 .071 5.812.142 12.885c0 2.24.637 4.411 1.7 6.372L0 25.909l6.872-1.75c1.913 1.05 4.038 1.54 6.164 1.54C20.19 25.7 26 19.887 26 12.815c0-3.432-1.346-6.653-3.754-9.034zM13.107 23.53c-1.912 0-3.825-.49-5.455-1.471l-.425-.21-4.109 1.05 1.063-3.991-.283-.42C.779 13.515 2.267 6.932 7.368 3.85c5.1-3.08 11.69-1.61 14.807 3.432 3.117 5.041 1.63 11.554-3.472 14.635-1.63 1.05-3.613 1.61-5.597 1.61zm6.235-7.773l-.78-.35s-1.133-.49-1.841-.84c-.071 0-.142-.07-.213-.07-.213 0-.354.07-.496.14 0 0-.07.07-1.063 1.19a.39.39 0 01-.354.21h-.07a.54.54 0 01-.284-.14l-.354-.14c-.78-.35-1.488-.77-2.055-1.33-.141-.14-.354-.28-.496-.42-.496-.491-.992-1.051-1.346-1.681l-.07-.14c-.071-.07-.071-.14-.142-.28 0-.14 0-.28.07-.35 0 0 .284-.35.496-.56.142-.141.213-.351.355-.491.141-.21.212-.49.141-.7-.07-.35-.92-2.241-1.133-2.661-.142-.21-.283-.28-.496-.35h-.78c-.141 0-.283.07-.424.07l-.071.07c-.142.07-.284.21-.425.28-.142.14-.213.28-.355.42-.496.63-.779 1.4-.779 2.17 0 .56.142 1.121.354 1.611l.071.21a11.67 11.67 0 002.622 3.571l.283.28c.212.21.425.35.567.56 1.487 1.261 3.188 2.172 5.1 2.662.213.07.496.07.709.14h.708c.355 0 .78-.14 1.063-.28.213-.14.354-.14.496-.28l.142-.14c.142-.14.283-.21.425-.35.142-.14.283-.28.354-.42.142-.28.213-.63.283-.981v-.49s-.07-.07-.212-.14z" fill="#fff"/></g><defs><clipPath id="clip0"><path fill="#fff" d="M0 0h26v26H0z"/></clipPath></defs></svg>