<svg width="26" height="26" fill="none" xmlns="http://www.w3.org/2000/svg"><path d="M13 0C5.82 0 0 5.82 0 13s5.82 13 13 13 13-5.82 13-13S20.18 0 13 0z" fill="#40B3E0"/><path d="M19.326 7.478l-2.322 11.707s-.325.812-1.218.422l-5.358-4.108-1.949-.942-3.28-1.104s-.503-.179-.552-.568c-.048-.39.569-.601.569-.601l13.038-5.115s1.072-.47 1.072.309" fill="#fff"/><path d="M10.016 19.053s-.156-.014-.351-.631c-.195-.617-1.186-3.865-1.186-3.865l7.875-5s.455-.277.439 0c0 0 .081.048-.163.275-.243.228-6.186 5.57-6.186 5.57" fill="#D2E5F1"/><path d="M12.483 17.074l-2.12 1.932s-.165.126-.346.047l.405-3.59" fill="#B5CFE4"/></svg>