<svg width="54" height="16" viewBox="0 0 54 16" fill="none" xmlns="http://www.w3.org/2000/svg">
<path d="M47.9992 0H37.6992C38.2992 3.4 41.5992 6.60001 45.1992 6.60001H53.3992C53.4992 6.30001 53.4992 5.8 53.4992 5.5C53.4992 2.5 50.9992 0 47.9992 0Z" fill="url(#paint0_linear)"/>
<path d="M38.5996 7.2002V15.5002H43.5996V11.1002H47.9996C50.3996 11.1002 52.4996 9.4002 53.1996 7.2002H38.5996Z" fill="#4FAD50"/>
<path d="M21 0V15.4H25.4C25.4 15.4 26.5 15.4 27.1 14.3C30.1 8.4 31 6.60001 31 6.60001H31.6V15.4H36.6V0H32.2C32.2 0 31.1 0.100006 30.5 1.10001C28 6.20001 26.6 8.8 26.6 8.8H26V0H21Z" fill="#4FAD50"/>
<path d="M0 15.5001V0.100098H5C5 0.100098 6.40001 0.100095 7.20001 2.30009C9.20001 8.10009 9.40002 8.9001 9.40002 8.9001C9.40002 8.9001 9.80001 7.50009 11.6 2.30009C12.4 0.100095 13.8 0.100098 13.8 0.100098H18.8V15.5001H13.8V7.2001H13.2L10.4 15.5001H8.20001L5.40002 7.2001H4.80002V15.5001H0Z" fill="#4FAD50"/>
<defs>
<linearGradient id="paint0_linear" x1="37.6814" y1="3.3473" x2="53.4638" y2="3.3473" gradientUnits="userSpaceOnUse">
<stop stop-color="#27B1E6"/>
<stop offset="1" stop-color="#148ACA"/>
</linearGradient>
</defs>
</svg>
