<svg width="54" height="16" fill="none" xmlns="http://www.w3.org/2000/svg"><path d="M48 0H37.7c.6 3.4 3.9 6.6 7.5 6.6h8.2c.1-.3.1-.8.1-1.1C53.5 2.5 51 0 48 0z" fill="url(#paint0_linear)"/><path d="M38.6 7.2v8.3h5v-4.4H48c2.4 0 4.5-1.7 5.2-3.9H38.6zM21 0v15.4h4.4s1.1 0 1.7-1.1c3-5.9 3.9-7.7 3.9-7.7h.6v8.8h5V0h-4.4s-1.1.1-1.7 1.1c-2.5 5.1-3.9 7.7-3.9 7.7H26V0h-5zM0 15.5V.1h5s1.4 0 2.2 2.2c2 5.8 2.2 6.6 2.2 6.6s.4-1.4 2.2-6.6C12.4.1 13.8.1 13.8.1h5v15.4h-5V7.2h-.6l-2.8 8.3H8.2L5.4 7.2h-.6v8.3H0z" fill="#4FAD50"/><defs><linearGradient id="paint0_linear" x1="37.681" y1="3.347" x2="53.464" y2="3.347" gradientUnits="userSpaceOnUse"><stop stop-color="#27B1E6"/><stop offset="1" stop-color="#148ACA"/></linearGradient></defs></svg>