<svg width="78" height="19" fill="none" xmlns="http://www.w3.org/2000/svg"><path d="M29.4 8.1c-.2 1.5-1.4 1.5-2.5 1.5h-.6l.5-2.9c0-.2.2-.3.4-.3h.3c.8 0 1.5 0 1.9.4v1.3zm-.5-4h-4.3c-.3 0-.5.2-.6.5l-1.7 11c0 .2.1.4.4.4h2c.3 0 .5-.2.6-.5l.5-3c0-.3.3-.5.6-.5h1.4c2.8 0 4.4-1.4 4.9-4.1.2-1.2 0-2.1-.5-2.8-.8-.6-1.9-1-3.3-1zm9.9 8c-.2 1.2-1.1 2-2.3 2-.6 0-1.1-.2-1.4-.6-.3-.4-.4-.9-.3-1.4.2-1.2 1.1-2 2.3-2 .6 0 1.1.2 1.4.6.2.3.4.8.3 1.4zm2.8-4h-2c-.2 0-.3.1-.4.3l-.1.6-.1-.2c-.4-.6-1.4-.9-2.4-.9-2.3 0-4.2 1.7-4.6 4.1-.2 1.2.1 2.3.8 3.1.6.7 1.5 1 2.6 1 1.8 0 2.8-1.2 2.8-1.2l-.1.6c0 .2.1.4.4.4h1.8c.3 0 .5-.2.6-.5l1.1-7c0-.1-.1-.3-.4-.3zm10.9 0h-2.1c-.2 0-.4.1-.5.3l-2.8 4.2-1.2-4c-.1-.3-.3-.4-.6-.4h-2c-.2 0-.4.2-.3.5l2.3 6.6-2.1 3c-.2.2 0 .6.3.6h2.1c.2 0 .4-.1.5-.3l6.8-9.9c.1-.3-.1-.6-.4-.6z" fill="#263577"/><path d="M59.8 8.1c-.2 1.5-1.4 1.5-2.5 1.5h-.6l.5-2.9c0-.2.2-.3.4-.3h.3c.8 0 1.5 0 1.9.4.1.4.1.8 0 1.3zm-.5-4H55c-.3 0-.5.2-.6.5l-1.7 11c0 .2.1.4.4.4h2.2c.2 0 .4-.1.4-.4l.5-3.1c0-.3.3-.5.6-.5h1.4c2.8 0 4.4-1.4 4.9-4.1.2-1.2 0-2.1-.5-2.8-.7-.6-1.8-1-3.3-1zm10 8c-.2 1.2-1.1 2-2.3 2-.6 0-1.1-.2-1.4-.6-.3-.4-.4-.9-.3-1.4.2-1.2 1.1-2 2.3-2 .6 0 1.1.2 1.4.6.2.3.4.8.3 1.4zm2.8-4h-2c-.2 0-.3.1-.4.3l-.1.6-.1-.2c-.4-.6-1.4-.9-2.4-.9-2.3 0-4.2 1.7-4.6 4.1-.2 1.2.1 2.3.8 3.1.6.7 1.5 1 2.6 1 1.8 0 2.8-1.2 2.8-1.2l-.1.6c0 .2.1.4.4.4h1.8c.3 0 .5-.2.6-.5l1.1-7c0-.1-.2-.3-.4-.3zm2.4-3.7l-1.8 11.2c0 .2.1.4.4.4h1.8c.3 0 .5-.2.6-.5l1.7-11c0-.2-.1-.4-.4-.4h-2c-.1 0-.2.2-.3.3z" fill="#2199D6"/><path d="M4.5 18.1l.3-2.1H.6L3 .7s0-.1.1-.1h6c1.9 0 3.3.4 4 1.2.3.4.5.8.6 1.2.1.5.1 1 0 1.7v.4l.3.2c.3.1.5.3.7.5.3.3.5.7.5 1.2.1.5.1 1.1-.1 1.8-.2.8-.4 1.4-.7 2-.3.5-.7.9-1.1 1.3-.4.3-1 .5-1.5.7-.6.1-1.2.2-1.9.2h-.5c-.3 0-.6.1-.9.3-.2.2-.4.5-.5.8v.2L7.4 18v.2H4.5v-.1z" fill="#263577"/><path d="M14.4 4.7c0 .1 0 .2-.1.3-.8 4-3.4 5.3-6.8 5.3H5.8c-.4 0-.8.3-.8.7l-.9 5.6-.2 1.6c0 .3.2.5.4.5h3.1c.4 0 .7-.3.7-.6v-.2l.6-3.6v-.2c.1-.4.4-.6.7-.6h.5c3 0 5.3-1.2 5.9-4.7.3-1.5.1-2.7-.6-3.5-.2-.2-.5-.4-.8-.6z" fill="#2199D6"/><path d="M13.6 4.4c-.1 0-.2-.1-.4-.1-.1 0-.3-.1-.4-.1-.5-.1-1-.1-1.5-.1H6.7c-.1 0-.2 0-.3.1-.2.1-.4.3-.4.5l-1 6.2v.2c.1-.4.4-.7.8-.7h1.7c3.4 0 6-1.4 6.8-5.3 0-.1 0-.2.1-.3l-.6-.3c-.1-.1-.2-.1-.2-.1z" fill="#252C5E"/><path d="M6 4.7c0-.2.2-.4.4-.5.1 0 .2-.1.3-.1h4.6c.5 0 1.1 0 1.5.1.1 0 .3 0 .4.1.1 0 .2.1.4.1.1 0 .1 0 .2.1l.6.3c.2-1.5 0-2.5-.8-3.4C12.7.4 11.1 0 9.1 0H3.2c-.4 0-.8.3-.8.7L0 16.1c0 .3.2.6.5.6h3.6l.9-5.8 1-6.2z" fill="#263577"/></svg>