<svg width="69" height="21" fill="none" xmlns="http://www.w3.org/2000/svg"><path d="M63.8.3h-4.3c-1.3 0-2.3.4-2.9 1.7l-8.2 18.7h5.8s1-2.5 1.2-3.1h7.1c.2.7.7 3 .7 3h5.2L63.8.3zM57 13.4c.5-1.2 2.2-5.7 2.2-5.7 0 .1.5-1.2.7-1.9l.4 1.8s1.1 4.9 1.3 5.9H57v-.1zm-8.2.6c0 4.2-3.8 7-9.7 7-2.5 0-4.9-.5-6.2-1.1l.8-4.6.7.3c1.8.8 3 1.1 5.2 1.1 1.6 0 3.3-.6 3.3-2 0-.9-.7-1.5-2.9-2.5-2.1-1-4.9-2.6-4.9-5.5 0-4 3.9-6.7 9.4-6.7 2.1 0 3.9.4 5 .9l-.8 4.4-.4-.4c-1-.4-2.3-.8-4.2-.8-2.1.1-3.1 1-3.1 1.8 0 .9 1.2 1.6 3.1 2.5 3.2 1.5 4.7 3.2 4.7 5.6z" fill="#3362AB"/><path d="M0 .5L.1.1h8.6c1.2 0 2.1.4 2.4 1.7l1.9 9C11.1 6 6.7 2.1 0 .5z" fill="#F9B50B"/><path d="M25.1.3l-8.7 20.3h-5.9l-5-17c3.6 2.3 6.6 5.9 7.7 8.4l.6 2.1L19.2.2h5.9v.1zm2.3-.1h5.5l-3.5 20.4h-5.5L27.4.2z" fill="#3362AB"/></svg>