<svg width="108" height="37" fill="none" xmlns="http://www.w3.org/2000/svg"><path d="M8.344 33v-4.983H5.39L2.745 33H.943l2.971-5.45c-1.652-.65-2.478-1.813-2.478-3.489 0-1.218.398-2.165 1.195-2.838.803-.68 1.916-1.02 3.34-1.02h4.069V33H8.344zm-5.22-8.939c-.001.774.24 1.395.72 1.864.486.469 1.16.706 2.021.712h2.479v-5.045h-2.4c-.914 0-1.614.217-2.1.65-.48.434-.72 1.04-.72 1.82z" fill="#DA2B07"/><path d="M20.297 33h-1.055v-4.36h-5.124V33h-1.055v-9.51h1.055v4.263h5.124V23.49h1.055V33zm2.601-.888l.466-.606c.738-1.002 1.163-2.467 1.275-4.395l.167-3.62h5.616v8.621h.984v3.683H30.36V33h-7.145v2.795h-1.01l.008-3.683h.685zm1.213 0h5.256v-7.637h-3.56l-.114 2.47c-.105 2.267-.633 3.99-1.582 5.167zm13.008 1.064a4.15 4.15 0 01-2.197-.598 4.088 4.088 0 01-1.52-1.661c-.364-.715-.546-1.515-.546-2.4v-.377c0-.914.176-1.738.528-2.47.357-.733.852-1.307 1.485-1.723a3.636 3.636 0 012.057-.633c1.154 0 2.068.396 2.742 1.187.68.785 1.02 1.86 1.02 3.226v.588h-6.786v.203c0 1.078.308 1.977.923 2.698.621.715 1.4 1.072 2.338 1.072.563 0 1.058-.102 1.485-.307.434-.206.827-.534 1.178-.985l.66.501c-.774 1.12-1.896 1.679-3.367 1.679zm-.193-8.965c-.791 0-1.46.29-2.004.87-.54.58-.867 1.36-.984 2.338h5.704v-.114c-.03-.914-.29-1.659-.783-2.233-.492-.574-1.136-.861-1.933-.861zm8.393 4.43H43.86V33h-1.063v-9.51h1.063v4.219h1.442l3.489-4.219h1.327l-3.902 4.615L50.549 33H49.16l-3.84-4.36zm10.125 3.647c.733 0 1.345-.205 1.837-.615a2.19 2.19 0 00.809-1.608h1.01c-.029.58-.21 1.11-.544 1.59a3.42 3.42 0 01-1.336 1.117 3.995 3.995 0 01-1.776.404c-1.248 0-2.238-.434-2.97-1.301-.727-.867-1.09-2.033-1.09-3.498v-.316c0-.938.164-1.767.492-2.488.328-.72.797-1.277 1.406-1.67.616-.392 1.333-.588 2.154-.588 1.042 0 1.9.31 2.575.931.68.621 1.043 1.439 1.09 2.452H58.09c-.047-.744-.317-1.345-.809-1.802-.486-.457-1.101-.685-1.846-.685-.949 0-1.687.343-2.214 1.028-.522.686-.782 1.647-.782 2.883v.308c0 1.213.26 2.159.782 2.839.527.68 1.268 1.02 2.223 1.02z" fill="#fff"/><path d="M107.2 14.63c-.2-1.2-1.3-2-2.8-2H103c-.9-.1-1.1.2-1.1.9v10.4c0 1.8-1.8 3.7-3.9 4.1-6.6 1.5-13.2 2.9-19.8 4.4-.7.2-1.5.2-2.3.2-.3 0-.8-.2-.9-.5-.1-.2.2-.6.4-.8.3-.2.7-.4 1.1-.6 1.2-.4 2.5-.8 3.7-1.2 4.9-1.6 9.8-3.2 14.7-4.9 2.2-.7 3.4-2.2 3.4-4.1.1-6 0-12.1 0-18.1 0-1-.5-1.8-1.6-2.2-1.3-.5-2.5-.1-3.6.4-7 3.3-13.9 6.6-20.9 9.9-2 1-3.2 2.4-3.2 4.4v17.1c0 .3 0 .6.1.8.7 1.9 2.5 3.1 4.9 3.1h29.3c1.1 0 2-.2 2.8-.9 1-.8 1-1.9 1-2.9v-16.7c.2-.1.2-.5.1-.8zm-20.4-1.8c.5-1.3 1.6-2.1 3.2-2.3 1.1-.1 2 .5 2.2 1.5.2 1.5-1.6 3.3-3.5 3.3-1.5 0-2.4-1.1-1.9-2.5z" fill="#E47418"/></svg>