<svg width="30" height="20" fill="none" xmlns="http://www.w3.org/2000/svg"><rect x=".726" width="28.726" height="19.335" rx="4" fill="#000"/><path fill="#fff" d="M3.509 1.934h23.166v15.468H3.509z" opacity=".01"/><path fill="#F26122" d="M12.036 4.628h6.11v10.078h-6.11z"/><path d="M12.694 9.668a6.416 6.416 0 012.394-5.04 6.306 6.306 0 00-8.59.69 6.456 6.456 0 000 8.7 6.306 6.306 0 008.59.689 6.416 6.416 0 01-2.394-5.04z" fill="#EA1D25"/><path fill-rule="evenodd" clip-rule="evenodd" d="M24.748 13.432v.205h-.036v-.205h-.084v-.043h.21v.043h-.09zm.407-.043v.248h-.042v-.187l-.066.163H25l-.072-.163v.187h-.041v-.248h.06l.077.176.072-.176h.06z" fill="#F69E1E"/><path d="M25.358 9.667a6.416 6.416 0 01-3.574 5.762 6.3 6.3 0 01-6.695-.723c2.753-2.188 3.23-6.214 1.065-8.996a6.254 6.254 0 00-1.065-1.082 6.3 6.3 0 016.695-.722 6.416 6.416 0 013.574 5.761z" fill="#F69E1E"/></svg>