<svg width="21" height="21" fill="none" xmlns="http://www.w3.org/2000/svg"><path d="M20.207 18.862l-6.34-6.34a7.259 7.259 0 001.516-4.463 7.28 7.28 0 00-2.146-5.179A7.27 7.27 0 008.059.734 7.28 7.28 0 002.88 2.88 7.266 7.266 0 00.734 8.06a7.28 7.28 0 002.146 5.178 7.266 7.266 0 005.179 2.146 7.264 7.264 0 004.46-1.514l6.34 6.338a.2.2 0 00.284 0l1.064-1.062a.2.2 0 000-.283zm-8.281-6.936a5.44 5.44 0 01-3.867 1.601 5.44 5.44 0 01-3.868-1.601A5.44 5.44 0 012.59 8.059a5.44 5.44 0 011.601-3.868A5.44 5.44 0 018.06 2.59c1.46 0 2.834.566 3.867 1.601a5.44 5.44 0 011.601 3.868c0 1.46-.568 2.834-1.601 3.867z" fill="#fff"/></svg>