<svg width="34" height="11" fill="none" xmlns="http://www.w3.org/2000/svg"><path fill-rule="evenodd" clip-rule="evenodd" d="M23.7 7.272c.006-1.722-1.4-2.465-2.492-3.043-.69-.365-1.255-.663-1.255-1.101 0-.373.358-.768 1.118-.87.905-.09 1.818.07 2.64.463l.47-2.258A7.142 7.142 0 0021.674 0C19.035 0 17.2 1.423 17.2 3.455c0 1.502 1.331 2.338 2.338 2.835 1.006.496 1.398.846 1.387 1.298 0 .7-.828 1.016-1.6 1.028a5.55 5.55 0 01-2.729-.678l-.48 2.259a7.943 7.943 0 002.974.553c2.808 0 4.653-1.4 4.664-3.568l-.056.09zM16.44.18l-2.237 10.445h-2.684L13.756.18h2.684zm11.253 6.774l1.41-3.918.816 3.918h-2.226zm5.468 3.705h-2.483l-.324-1.558h-3.366l-.548 1.558h-2.82L27.636.983a1.22 1.22 0 011.119-.768h2.236l2.17 10.445zm-24.829-.068L12.672.148H9.764L6.979 7.25 5.86 1.209A1.256 1.256 0 004.619.148H.067L0 .452c.913.18 1.8.477 2.64.881.357.17.6.518.637.915l2.136 8.344h2.92z" fill="#8989DB"/></svg>